<?xml version="1.0" standalone="no"?>
<!DOCTYPE svg PUBLIC "-//W3C//DTD SVG 20010904//EN"
 "http://www.w3.org/TR/2001/REC-SVG-20010904/DTD/svg10.dtd">
<svg version="1.0" xmlns="http://www.w3.org/2000/svg"
 width="256.000000pt" height="256.000000pt" viewBox="0 0 256.000000 256.000000"
 preserveAspectRatio="xMidYMid meet">

<g transform="translate(0.000000,256.000000) scale(0.100000,-0.100000)"
fill="#000000" stroke="none">
<path d="M938 2303 c-51 -3 -80 -9 -88 -18 -7 -8 -19 -15 -28 -15 -8 0 -35
-12 -60 -26 -35 -21 -53 -25 -85 -21 -44 6 -53 0 -130 -96 -21 -26 -43 -47
-50 -47 -7 0 -17 -10 -22 -22 -7 -16 -24 -26 -53 -33 l-43 -11 21 -22 21 -23
-29 -37 c-44 -56 -61 -101 -58 -157 5 -100 19 -205 27 -211 17 -10 9 -45 -15
-67 -32 -29 -62 -120 -60 -182 2 -81 81 -226 135 -247 13 -5 14 -19 7 -89 -5
-46 -13 -88 -19 -94 -5 -5 -9 -23 -9 -40 0 -16 -9 -41 -18 -53 -17 -22 -26
-24 -113 -24 -80 -1 -107 4 -181 30 l-88 30 0 -414 0 -414 700 0 700 0 0 29
c0 48 13 51 190 48 156 -3 163 -4 181 -26 11 -13 19 -29 19 -37 0 -8 10 -14
25 -14 14 0 25 6 25 13 0 11 -11 96 -38 307 -4 30 -11 61 -16 68 -12 20 30 59
88 81 28 10 94 28 146 40 52 12 120 28 150 37 30 8 129 22 220 30 91 9 166 17
168 19 9 8 -125 16 -180 11 -148 -16 -223 -31 -385 -78 -194 -57 -228 -73
-238 -117 -4 -21 -15 -32 -36 -40 -35 -12 -53 -52 -45 -100 5 -31 0 -39 -60
-101 l-65 -68 -66 -4 c-52 -3 -69 -9 -83 -26 -10 -12 -22 -22 -28 -22 -5 0
-40 22 -78 49 -38 26 -79 51 -91 55 -24 8 -103 90 -103 107 0 8 13 10 40 6 22
-3 43 -1 46 4 3 5 14 9 26 9 22 0 169 137 241 225 39 48 39 48 6 18 -40 -38
-49 -41 -42 -15 6 24 -34 23 -52 -1 -7 -9 -17 -17 -23 -17 -6 0 -15 -6 -19
-13 -10 -16 -86 -66 -140 -93 -34 -17 -45 -19 -54 -8 -5 7 -28 15 -49 19 -21
4 -41 13 -44 21 -4 10 -13 13 -25 9 -11 -3 -22 -1 -25 4 -4 6 -13 8 -21 4 -8
-3 -15 -1 -15 5 0 6 -17 32 -38 59 -21 26 -45 64 -55 83 -9 19 -17 28 -17 20
0 -33 -30 45 -31 84 -2 36 -3 37 -7 11 -4 -20 -9 2 -17 70 l-11 100 -13 -60
c-25 -120 -29 -121 -87 -10 -23 43 -50 86 -61 95 -14 11 -22 32 -25 69 -3 31
-14 64 -27 81 -11 16 -21 44 -21 62 0 54 -15 65 -36 29 -23 -39 -64 -49 -99
-24 -46 33 -120 213 -87 213 6 0 13 -6 15 -12 3 -7 6 -2 6 12 1 14 8 36 17 48
9 13 20 35 24 50 7 23 9 25 15 9 7 -18 -1 -43 -27 -79 -11 -15 -9 -26 12 -64
14 -25 31 -51 39 -57 12 -10 13 -7 8 20 -5 26 -3 33 13 38 11 4 20 13 20 22 0
22 -41 156 -51 167 -6 6 -23 -4 -45 -25 l-35 -34 11 30 c12 31 56 74 77 75 6
0 14 -9 18 -20 3 -11 17 -28 29 -38 20 -15 24 -29 28 -105 2 -48 7 -90 11 -93
4 -4 13 -1 22 6 11 9 15 32 15 79 0 36 4 72 9 80 7 11 33 13 121 9 104 -4 113
-3 118 14 8 31 59 49 156 55 68 4 106 2 148 -11 83 -24 100 -42 106 -110 4
-48 7 -56 21 -50 9 3 37 9 64 12 59 6 83 -12 92 -71 11 -64 17 -71 43 -47 11
11 30 20 41 20 30 0 68 17 74 33 4 10 -1 13 -20 9 -21 -4 -24 -1 -21 19 5 36
62 38 84 3 11 -16 20 -22 26 -16 16 16 -1 51 -32 67 -51 26 -98 17 -147 -28
l-23 -20 0 28 c0 17 10 37 26 51 51 48 244 25 310 -37 24 -23 45 -20 27 3 -6
7 -11 61 -11 120 l1 107 33 20 c19 11 34 25 34 31 0 7 16 31 35 54 40 49 44
61 16 46 -34 -18 -35 8 -2 46 37 42 38 46 6 38 -32 -8 -33 11 -5 59 11 19 18
42 14 51 -3 9 2 28 11 43 17 25 17 27 -1 40 -10 7 -25 13 -33 13 -35 1 -170
84 -171 105 0 6 -12 18 -28 27 -15 10 -38 27 -53 38 -14 12 -35 22 -47 23 -12
1 -22 4 -22 8 0 10 -51 27 -102 33 -26 3 -56 10 -65 15 -48 24 -211 33 -435
24z m304 -316 c13 -8 46 -18 73 -22 28 -4 55 -11 61 -16 7 -6 16 -4 24 6 7 8
16 12 22 9 5 -3 15 0 24 6 19 16 99 7 122 -13 10 -9 47 -27 82 -41 61 -22 65
-26 73 -62 11 -50 14 -413 4 -437 -7 -18 -10 -17 -51 7 -25 14 -53 26 -62 26
-13 0 -15 3 -8 10 8 8 19 8 38 0 40 -15 53 -13 59 10 10 38 -35 76 -101 87
-84 13 -117 2 -143 -49 -14 -28 -18 -43 -10 -46 20 -7 11 -22 -13 -22 -17 0
-28 -9 -40 -34 -9 -19 -16 -38 -16 -44 0 -6 -15 -4 -37 3 -22 8 -56 11 -80 8
l-43 -6 6 44 c5 35 1 52 -16 82 -28 47 -72 61 -202 61 -54 1 -98 2 -98 4 0 2
16 10 35 18 48 20 110 18 178 -6 31 -11 71 -20 88 -20 30 0 31 1 25 33 -8 38
-56 89 -88 93 -81 9 -129 11 -133 4 -3 -5 -27 -11 -54 -15 -29 -4 -57 -15 -67
-26 -9 -10 -24 -19 -32 -19 -9 0 -12 -6 -8 -16 4 -9 1 -23 -5 -30 -6 -8 -9
-21 -5 -29 4 -11 -9 -22 -43 -40 -48 -24 -106 -31 -215 -27 l-39 2 7 39 c3 21
2 60 -3 85 -8 41 -6 51 13 74 12 15 28 37 36 49 8 12 41 55 73 96 31 42 57 80
57 85 0 23 67 50 141 56 41 4 97 15 125 26 40 17 65 20 136 16 51 -3 96 -11
110 -19z m-819 -636 c6 -24 0 -31 -25 -31 -21 0 -24 20 -6 38 17 17 25 15 31
-7z m1026 -69 c-5 -2 -17 -1 -27 3 -15 6 -15 8 3 15 12 4 23 3 27 -4 4 -6 3
-13 -3 -14z m-47 -24 c-7 -7 -12 -8 -12 -2 0 14 12 26 19 19 2 -3 -1 -11 -7
-17z m-882 -428 c29 -63 119 -209 156 -256 48 -59 77 -124 78 -171 1 -27 6
-43 14 -43 6 0 12 -5 12 -11 0 -6 7 -9 15 -5 9 3 15 0 15 -9 0 -16 46 -65 61
-65 6 0 -8 -15 -30 -34 -23 -19 -38 -37 -33 -40 10 -6 84 27 123 54 l29 21 -6
-30 c-7 -35 1 -39 28 -14 32 29 22 -10 -15 -59 -68 -89 -213 -156 -311 -143
-107 15 -168 41 -225 97 -58 58 -86 106 -122 213 -20 58 -24 88 -23 178 1 106
2 108 39 170 21 34 47 71 58 83 25 26 97 159 98 182 1 9 5 -3 9 -28 5 -25 18
-65 30 -90z m109 -28 c19 -25 32 -55 36 -83 l5 -44 -15 33 c-9 18 -22 35 -30
38 -8 4 -15 14 -15 24 0 9 -9 29 -21 44 -16 20 -17 26 -6 26 9 0 29 -17 46
-38z m156 -252 c8 -13 -5 -13 -25 0 -13 8 -13 10 2 10 9 0 20 -4 23 -10z m612
-72 c-3 -8 -6 -5 -6 6 -1 11 2 17 5 13 3 -3 4 -12 1 -19z m-517 -23 c10 -12
10 -15 -3 -15 -8 0 -20 7 -27 15 -10 12 -10 15 3 15 8 0 20 -7 27 -15z m108
-83 c2 -7 -2 -10 -12 -6 -9 3 -16 11 -16 16 0 13 23 5 28 -10z m780 -86 c-2
-22 -13 -37 -43 -57 -40 -28 -57 -30 -37 -7 6 7 16 36 22 63 20 83 19 83 41
56 13 -15 19 -36 17 -55z m-713 44 c3 -6 -1 -7 -9 -4 -18 7 -21 14 -7 14 6 0
13 -4 16 -10z m-65 -40 c0 -5 -5 -10 -11 -10 -5 0 -7 5 -4 10 3 6 8 10 11 10
2 0 4 -4 4 -10z m784 -86 c11 -29 7 -64 -9 -64 -8 0 -24 -9 -35 -20 -24 -24
-110 -29 -110 -6 0 14 118 106 136 106 7 0 15 -7 18 -16z m-182 -96 c-7 -7
-12 -8 -12 -2 0 14 12 26 19 19 2 -3 -1 -11 -7 -17z m198 2 c0 -5 -4 -10 -10
-10 -5 0 -10 5 -10 10 0 6 5 10 10 10 6 0 10 -4 10 -10z"/>
<path d="M521 744 c0 -11 3 -14 6 -6 3 7 2 16 -1 19 -3 4 -6 -2 -5 -13z"/>
<path d="M923 1465 c-51 -22 -66 -74 -27 -89 9 -3 12 -1 9 4 -3 5 -1 18 5 27
9 15 10 11 6 -18 -2 -20 1 -42 7 -48 23 -23 117 -5 117 22 0 7 -11 13 -27 12
-21 0 -28 5 -28 20 0 15 7 20 28 20 15 -1 27 3 27 7 0 5 14 1 30 -7 33 -17 52
-13 44 9 -14 36 -140 63 -191 41z"/>
<path d="M1120 1354 c0 -8 5 -12 10 -9 6 3 10 10 10 16 0 5 -4 9 -10 9 -5 0
-10 -7 -10 -16z"/>
<path d="M1717 1333 c-4 -3 -7 -13 -7 -22 1 -13 3 -13 11 2 11 19 8 33 -4 20z"/>
<path d="M1118 1263 c7 -3 16 -2 19 1 4 3 -2 6 -13 5 -11 0 -14 -3 -6 -6z"/>
<path d="M1538 1253 c6 -2 18 -2 25 0 6 3 1 5 -13 5 -14 0 -19 -2 -12 -5z"/>
<path d="M1485 1205 c17 -8 41 -14 55 -14 15 0 5 6 -25 14 -62 17 -69 17 -30
0z"/>
<path d="M1686 1130 c-8 -90 -23 -197 -31 -227 -3 -10 1 -4 9 12 16 35 39 214
34 265 -2 22 -7 3 -12 -50z"/>
<path d="M1390 1128 c0 -79 -20 -133 -55 -152 -54 -29 -67 -38 -58 -47 8 -8
70 8 83 21 3 3 14 12 24 20 18 14 19 13 13 -2 -3 -10 -3 -18 2 -18 21 0 21
233 0 246 -5 3 -9 -28 -9 -68z"/>
<path d="M1120 995 c0 -15 38 -40 47 -31 3 3 20 -1 38 -8 38 -16 70 -5 37 13
-11 6 -34 11 -50 11 -16 0 -35 7 -42 15 -16 19 -30 19 -30 0z"/>
<path d="M773 955 c-4 -11 31 -51 110 -129 127 -123 212 -176 320 -198 52 -11
61 -10 94 7 20 11 61 46 93 77 31 32 62 58 68 58 15 0 25 18 17 30 -4 7 -13 6
-27 -1 -12 -6 -49 -12 -82 -12 -55 0 -57 0 -18 -6 l42 -6 -25 -38 c-28 -40
-66 -61 -95 -52 -11 3 -20 -1 -24 -10 -11 -31 -138 -10 -210 34 -18 11 -61 50
-96 86 -50 53 -60 69 -49 76 16 11 7 19 -51 52 -27 14 -30 20 -20 32 10 13 8
15 -14 15 -15 0 -29 -7 -33 -15z"/>
<path d="M1023 918 c-35 -9 -44 -27 -15 -30 9 0 31 -2 47 -4 17 -1 49 -5 73
-8 38 -5 43 -3 40 12 -2 11 -13 17 -33 18 -17 1 -34 3 -40 4 -5 1 -14 2 -19 1
-5 -1 -12 2 -15 7 -3 5 -20 5 -38 0z"/>
<path d="M943 903 c9 -2 23 -2 30 0 6 3 -1 5 -18 5 -16 0 -22 -2 -12 -5z"/>
<path d="M1538 638 c-26 -44 -40 -74 -30 -65 24 22 85 124 80 136 -1 5 -24
-27 -50 -71z"/>
<path d="M2428 653 c7 -3 16 -2 19 1 4 3 -2 6 -13 5 -11 0 -14 -3 -6 -6z"/>
<path d="M2025 630 c-10 -11 -24 -20 -32 -20 -8 0 -11 -4 -8 -10 10 -16 20
-12 43 20 26 34 24 40 -3 10z"/>
<path d="M1786 505 c-9 -26 -7 -32 5 -12 6 10 9 21 6 23 -2 3 -7 -2 -11 -11z"/>
<path d="M2478 423 c7 -3 16 -2 19 1 4 3 -2 6 -13 5 -11 0 -14 -3 -6 -6z"/>
<path d="M2280 368 c-36 -5 -66 -13 -68 -17 -2 -5 -28 -7 -58 -5 -40 3 -53 1
-48 -7 12 -19 175 -4 221 20 21 11 34 20 28 19 -5 0 -39 -5 -75 -10z"/>
<path d="M1960 345 c-48 -27 -53 -28 -65 -12 -15 21 -48 22 -64 3 -10 -12 -8
-13 9 -9 12 3 28 -2 40 -12 14 -13 28 -15 59 -10 23 4 43 11 47 16 3 5 14 9
25 9 26 0 20 24 -7 28 -10 1 -30 -4 -44 -13z"/>
<path d="M2045 350 c3 -5 10 -10 16 -10 5 0 9 5 9 10 0 6 -7 10 -16 10 -8 0
-12 -4 -9 -10z"/>
<path d="M1860 170 c0 -123 6 -170 19 -170 11 0 1 273 -10 285 -5 5 -9 -42 -9
-115z"/>
<path d="M1945 221 c-3 -5 -1 -12 5 -16 5 -3 10 1 10 9 0 18 -6 21 -15 7z"/>
<path d="M2050 210 c-8 -5 -11 -12 -7 -17 5 -4 11 -3 15 3 4 6 14 14 22 17 13
5 13 5 0 6 -8 0 -22 -3 -30 -9z"/>
</g>
</svg>
